<mxfile host="Electron" modified="2023-08-24T06:32:26.319Z" agent="Mozilla/5.0 (Windows NT 10.0; Win64; x64) AppleWebKit/537.36 (KHTML, like Gecko) draw.io/21.2.1 Chrome/112.0.5615.87 Electron/24.1.2 Safari/537.36" etag="WyJGG4dKTUCEOA6bsELv" version="21.2.1" type="device">
  <diagram name="Page-1" id="FquhY9eDMRmbLJAEsB-l">
    <mxGraphModel dx="1674" dy="836" grid="1" gridSize="10" guides="1" tooltips="1" connect="1" arrows="1" fold="1" page="1" pageScale="1" pageWidth="850" pageHeight="1100" math="0" shadow="0">
      <root>
        <mxCell id="0" />
        <mxCell id="1" parent="0" />
        <mxCell id="ZkYhk7Rq8dYDpiSWgplg-10" style="edgeStyle=orthogonalEdgeStyle;rounded=0;orthogonalLoop=1;jettySize=auto;html=1;" edge="1" parent="1" source="ZkYhk7Rq8dYDpiSWgplg-1" target="ZkYhk7Rq8dYDpiSWgplg-9">
          <mxGeometry relative="1" as="geometry" />
        </mxCell>
        <mxCell id="ZkYhk7Rq8dYDpiSWgplg-14" style="edgeStyle=orthogonalEdgeStyle;rounded=0;orthogonalLoop=1;jettySize=auto;html=1;entryX=0.411;entryY=1.04;entryDx=0;entryDy=0;entryPerimeter=0;" edge="1" parent="1" source="ZkYhk7Rq8dYDpiSWgplg-1" target="ZkYhk7Rq8dYDpiSWgplg-13">
          <mxGeometry relative="1" as="geometry" />
        </mxCell>
        <mxCell id="ZkYhk7Rq8dYDpiSWgplg-16" style="edgeStyle=orthogonalEdgeStyle;rounded=0;orthogonalLoop=1;jettySize=auto;html=1;" edge="1" parent="1" source="ZkYhk7Rq8dYDpiSWgplg-1" target="ZkYhk7Rq8dYDpiSWgplg-15">
          <mxGeometry relative="1" as="geometry">
            <Array as="points">
              <mxPoint x="680" y="810" />
              <mxPoint x="715" y="810" />
            </Array>
          </mxGeometry>
        </mxCell>
        <mxCell id="ZkYhk7Rq8dYDpiSWgplg-18" style="edgeStyle=orthogonalEdgeStyle;rounded=0;orthogonalLoop=1;jettySize=auto;html=1;entryX=0;entryY=0.5;entryDx=0;entryDy=0;" edge="1" parent="1" source="ZkYhk7Rq8dYDpiSWgplg-1" target="ZkYhk7Rq8dYDpiSWgplg-17">
          <mxGeometry relative="1" as="geometry" />
        </mxCell>
        <mxCell id="ZkYhk7Rq8dYDpiSWgplg-20" style="edgeStyle=orthogonalEdgeStyle;rounded=0;orthogonalLoop=1;jettySize=auto;html=1;entryX=0;entryY=0.5;entryDx=0;entryDy=0;" edge="1" parent="1" source="ZkYhk7Rq8dYDpiSWgplg-1" target="ZkYhk7Rq8dYDpiSWgplg-19">
          <mxGeometry relative="1" as="geometry" />
        </mxCell>
        <mxCell id="ZkYhk7Rq8dYDpiSWgplg-21" style="edgeStyle=orthogonalEdgeStyle;rounded=0;orthogonalLoop=1;jettySize=auto;html=1;" edge="1" parent="1" source="ZkYhk7Rq8dYDpiSWgplg-1" target="ZkYhk7Rq8dYDpiSWgplg-22">
          <mxGeometry relative="1" as="geometry">
            <mxPoint x="620" y="990" as="targetPoint" />
          </mxGeometry>
        </mxCell>
        <mxCell id="ZkYhk7Rq8dYDpiSWgplg-24" style="edgeStyle=orthogonalEdgeStyle;rounded=0;orthogonalLoop=1;jettySize=auto;html=1;entryX=0.431;entryY=0.017;entryDx=0;entryDy=0;entryPerimeter=0;" edge="1" parent="1" source="ZkYhk7Rq8dYDpiSWgplg-1" target="ZkYhk7Rq8dYDpiSWgplg-23">
          <mxGeometry relative="1" as="geometry" />
        </mxCell>
        <mxCell id="ZkYhk7Rq8dYDpiSWgplg-26" value="" style="edgeStyle=orthogonalEdgeStyle;rounded=0;orthogonalLoop=1;jettySize=auto;html=1;entryX=1.008;entryY=0.638;entryDx=0;entryDy=0;entryPerimeter=0;" edge="1" parent="1" source="ZkYhk7Rq8dYDpiSWgplg-1" target="ZkYhk7Rq8dYDpiSWgplg-27">
          <mxGeometry relative="1" as="geometry" />
        </mxCell>
        <mxCell id="ZkYhk7Rq8dYDpiSWgplg-28" style="edgeStyle=orthogonalEdgeStyle;rounded=0;orthogonalLoop=1;jettySize=auto;html=1;entryX=1;entryY=0.5;entryDx=0;entryDy=0;" edge="1" parent="1" source="ZkYhk7Rq8dYDpiSWgplg-1" target="ZkYhk7Rq8dYDpiSWgplg-25">
          <mxGeometry relative="1" as="geometry" />
        </mxCell>
        <mxCell id="ZkYhk7Rq8dYDpiSWgplg-1" value="Tướng" style="rounded=0;whiteSpace=wrap;html=1;" vertex="1" parent="1">
          <mxGeometry x="540" y="850" width="120" height="60" as="geometry" />
        </mxCell>
        <mxCell id="ZkYhk7Rq8dYDpiSWgplg-9" value="Tên tướng" style="ellipse;whiteSpace=wrap;html=1;" vertex="1" parent="1">
          <mxGeometry x="510" y="730" width="90" height="50" as="geometry" />
        </mxCell>
        <mxCell id="ZkYhk7Rq8dYDpiSWgplg-13" value="Biệt danh" style="ellipse;whiteSpace=wrap;html=1;" vertex="1" parent="1">
          <mxGeometry x="610" y="710" width="90" height="50" as="geometry" />
        </mxCell>
        <mxCell id="ZkYhk7Rq8dYDpiSWgplg-15" value="Quote" style="ellipse;whiteSpace=wrap;html=1;" vertex="1" parent="1">
          <mxGeometry x="670" y="750" width="90" height="50" as="geometry" />
        </mxCell>
        <mxCell id="ZkYhk7Rq8dYDpiSWgplg-17" value="Loại Tướng&lt;br&gt;( Vd pháp sư )" style="ellipse;whiteSpace=wrap;html=1;" vertex="1" parent="1">
          <mxGeometry x="730" y="820" width="100" height="60" as="geometry" />
        </mxCell>
        <mxCell id="ZkYhk7Rq8dYDpiSWgplg-19" value="Hình ảnh" style="ellipse;whiteSpace=wrap;html=1;" vertex="1" parent="1">
          <mxGeometry x="740" y="900" width="100" height="60" as="geometry" />
        </mxCell>
        <mxCell id="ZkYhk7Rq8dYDpiSWgplg-22" value="Race ( chủng tộc )" style="ellipse;whiteSpace=wrap;html=1;" vertex="1" parent="1">
          <mxGeometry x="670" y="980" width="130" height="60" as="geometry" />
        </mxCell>
        <mxCell id="ZkYhk7Rq8dYDpiSWgplg-23" value="Related Champion&lt;br&gt;( vị tướng lien quan )&amp;nbsp;" style="ellipse;whiteSpace=wrap;html=1;" vertex="1" parent="1">
          <mxGeometry x="490" y="990" width="130" height="60" as="geometry" />
        </mxCell>
        <mxCell id="ZkYhk7Rq8dYDpiSWgplg-25" value="Region&lt;br&gt;( Vùng Đất )" style="ellipse;whiteSpace=wrap;html=1;" vertex="1" parent="1">
          <mxGeometry x="330" y="880" width="130" height="60" as="geometry" />
        </mxCell>
        <mxCell id="ZkYhk7Rq8dYDpiSWgplg-27" value="Giới thiệu sơ bộ&amp;nbsp;&lt;br&gt;( summary )&amp;nbsp;&amp;nbsp;" style="ellipse;whiteSpace=wrap;html=1;" vertex="1" parent="1">
          <mxGeometry x="340" y="735" width="120" height="80" as="geometry" />
        </mxCell>
      </root>
    </mxGraphModel>
  </diagram>
</mxfile>
